<!DOCTYPE svg PUBLIC "-//W3C//DTD SVG 20010904//EN" "http://www.w3.org/TR/2001/REC-SVG-20010904/DTD/svg10.dtd">
<svg version="1.0" xmlns="http://www.w3.org/2000/svg" width="1600px" height="956px" viewBox="0 0 16000 9560" preserveAspectRatio="xMidYMid meet">
<g id="layer1" fill="#ffffff" stroke="none" stroke-width="2">
 <path d="M15583 9503 c-27 -18 -31 -73 -9 -96 9 -8 47 -16 99 -20 143 -11 221 -60 197 -122 -22 -57 -133 -145 -245 -194 -27 -12 -59 -26 -70 -31 -21 -10 -140 -49 -210 -69 -132 -37 -340 -73 -540 -93 -73 -7 -776 -13 -2085 -18 -1329 -5 -2006 -11 -2070 -18 -412 -48 -626 -86 -910 -161 -114 -30 -177 -48 -187 -54 -6 -4 -57 -9 -116 -12 -58 -2 -116 -9 -129 -14 -13 -5 -45 -15 -73 -22 -99 -24 -418 -191 -475 -249 -3 -3 -25 -19 -50 -35 -24 -17 -54 -38 -65 -47 -11 -9 -58 -46 -105 -83 -47 -37 -87 -70 -90 -74 -3 -3 -26 -23 -52 -44 -26 -21 -53 -43 -60 -50 -7 -7 -51 -44 -98 -84 -105 -89 -327 -312 -372 -375 -18 -25 -65 -88 -103 -140 -189 -252 -353 -565 -445 -853 -13 -38 -26 -77 -30 -85 -4 -9 -11 -31 -14 -50 -4 -19 -11 -44 -16 -55 -29 -70 -88 -394 -111 -605 -12 -122 -12 -575 0 -705 29 -295 78 -558 147 -789 7 -26 14 -54 14 -62 0 -15 7 -16 -170 16 -243 45 -276 51 -310 60 -19 5 -64 14 -100 20 -69 12 -116 22 -400 85 -72 17 -328 76 -400 94 -160 39 -637 172 -840 235 -187 58 -216 68 -235 76 -11 5 -58 21 -105 35 -47 15 -94 31 -105 36 -11 4 -56 20 -100 35 -44 14 -93 32 -110 39 -16 7 -55 21 -85 31 -30 9 -59 20 -65 24 -5 4 -28 13 -50 19 -22 7 -49 16 -60 21 -70 31 -121 52 -205 85 -109 43 -170 72 -170 83 0 4 -10 18 -22 32 -13 14 -50 59 -83 100 -33 41 -70 86 -82 100 -22 25 -176 218 -223 280 -14 18 -30 38 -35 44 -13 13 -270 344 -340 436 -27 36 -55 72 -62 80 -13 15 -200 262 -238 314 -11 16 -24 33 -30 40 -5 6 -30 38 -55 71 -24 33 -48 65 -53 70 -4 6 -57 75 -117 155 -60 80 -113 150 -117 155 -5 6 -29 37 -53 70 -24 33 -49 65 -54 71 -6 7 -20 24 -31 40 -23 33 -84 113 -97 128 -5 6 -32 43 -61 81 -123 162 -261 341 -271 350 -6 6 -24 28 -41 50 -16 22 -39 51 -51 65 -12 14 -57 68 -100 120 -116 140 -122 146 -269 307 -160 176 -437 412 -482 413 -7 0 -13 4 -13 8 0 5 -19 16 -42 26 -24 10 -56 25 -73 32 -80 35 -188 43 -297 20 -244 -52 -379 -241 -365 -513 6 -112 44 -292 76 -358 6 -11 22 -49 36 -85 46 -113 128 -258 238 -423 21 -33 86 -121 99 -136 7 -8 28 -36 48 -62 118 -157 407 -460 604 -634 43 -39 86 -77 95 -85 9 -8 52 -44 96 -80 44 -35 82 -67 85 -70 3 -3 23 -19 45 -36 22 -16 45 -33 52 -39 25 -22 167 -127 223 -165 13 -8 28 -19 34 -25 11 -10 53 -39 216 -149 42 -28 108 -71 148 -96 40 -25 97 -60 125 -79 95 -61 303 -181 315 -181 7 0 12 -4 12 -8 0 -4 12 -13 28 -19 15 -7 68 -35 117 -63 84 -47 556 -283 655 -328 25 -11 83 -38 130 -59 47 -22 113 -50 148 -64 49 -18 74 -36 107 -74 23 -27 100 -117 170 -200 71 -82 135 -157 144 -166 9 -9 23 -25 31 -35 19 -24 162 -187 170 -194 3 -3 25 -28 50 -55 232 -260 383 -418 720 -755 337 -337 480 -473 710 -676 24 -21 51 -46 60 -54 21 -19 50 -44 170 -145 52 -44 97 -82 100 -85 3 -3 30 -25 60 -50 30 -25 57 -47 60 -50 3 -3 50 -42 105 -85 55 -44 102 -82 105 -85 3 -4 32 -26 65 -50 33 -24 65 -49 72 -54 6 -6 22 -19 35 -29 13 -9 37 -27 53 -40 96 -73 343 -251 420 -302 50 -33 95 -64 100 -68 20 -17 268 -178 313 -204 26 -15 49 -30 52 -33 3 -3 14 -10 25 -17 11 -7 51 -31 90 -55 38 -24 74 -45 80 -47 5 -2 28 -16 50 -30 22 -15 51 -32 65 -39 14 -6 32 -16 40 -22 96 -63 581 -317 790 -413 30 -14 89 -41 130 -60 41 -19 120 -53 175 -76 90 -38 125 -53 190 -81 11 -5 52 -20 90 -35 39 -15 84 -33 102 -41 17 -8 37 -14 45 -14 8 0 18 -4 23 -9 6 -5 33 -16 60 -25 39 -12 229 -77 345 -119 36 -13 249 -77 285 -86 22 -5 65 -17 95 -26 50 -15 92 -26 270 -70 178 -45 303 -72 610 -130 186 -36 518 -80 745 -100 94 -8 218 -19 276 -25 58 -6 239 -13 402 -17 278 -6 298 -5 317 12 26 24 27 80 2 94 -19 10 -44 15 -297 56 -233 38 -327 54 -365 65 -19 5 -80 19 -135 31 -160 35 -302 71 -537 140 -143 41 -482 159 -573 199 -22 10 -65 27 -95 38 -30 11 -100 41 -155 66 -55 26 -117 54 -139 64 -129 58 -414 207 -525 273 -34 22 -65 39 -67 39 -6 0 -271 168 -341 216 -56 38 -217 155 -258 187 -5 4 -28 21 -50 38 -55 42 -105 83 -194 159 -42 36 -89 76 -106 90 -43 36 -453 446 -500 501 -22 25 -67 79 -100 120 -33 41 -65 79 -71 84 -6 6 -38 46 -70 90 -32 44 -61 82 -64 85 -10 10 -57 78 -137 200 -45 69 -86 130 -91 135 -4 6 -21 35 -38 65 -16 30 -32 57 -35 60 -3 3 -9 12 -13 20 -4 8 -25 47 -46 85 -105 186 -330 686 -330 734 0 11 63 7 100 -6 8 -3 62 -12 120 -19 58 -8 152 -21 210 -29 252 -36 611 -76 875 -99 94 -9 217 -20 275 -26 407 -42 1241 -79 1794 -80 342 -1 371 0 383 16 19 26 16 68 -5 87 -17 15 -82 18 -603 27 -321 6 -591 13 -599 15 -8 2 -118 9 -245 15 -321 15 -668 41 -1010 74 -82 9 -220 22 -305 30 -85 9 -168 18 -185 21 -16 4 -84 12 -150 20 -66 8 -165 21 -220 29 -55 8 -154 22 -220 31 -66 8 -145 20 -175 26 -30 6 -64 12 -76 15 -15 2 -24 16 -32 46 -6 24 -20 79 -32 123 -44 166 -74 307 -95 450 -8 55 -19 127 -25 160 -21 121 -31 458 -20 666 6 111 12 205 14 208 2 3 12 60 20 126 27 198 104 499 162 632 8 17 14 35 14 41 0 13 40 107 101 237 67 144 275 476 341 547 7 7 26 31 42 53 66 91 399 406 536 509 41 30 80 59 85 63 23 18 159 105 200 129 123 70 167 93 275 145 163 79 169 81 350 150 122 47 144 46 222 -4 76 -48 133 -120 189 -237 71 -148 126 -351 186 -690 8 -47 21 -119 28 -160 7 -41 23 -129 34 -195 31 -179 54 -285 101 -475 27 -111 86 -265 147 -385 65 -128 171 -245 261 -288 72 -34 188 -31 263 6 31 15 65 35 77 45 11 9 36 29 54 43 47 37 136 148 207 259 97 151 252 470 321 661 17 46 35 93 40 104 5 11 20 52 33 90 14 39 31 85 39 104 l14 34 57 -114 c77 -152 178 -340 187 -349 3 -3 12 -18 20 -35 25 -50 74 -130 82 -133 4 -2 8 -8 8 -12 0 -24 214 -341 314 -465 109 -136 217 -236 325 -300 58 -35 73 -39 147 -43 71 -4 89 -1 129 18 55 27 94 66 139 140 101 164 180 597 206 1125 14 278 29 518 40 620 60 552 249 791 705 894 91 20 346 40 600 45 138 3 282 10 320 15 163 21 232 32 270 41 22 5 94 21 160 36 66 15 124 31 130 35 5 5 16 9 25 9 8 0 63 20 120 44 158 65 223 105 307 187 71 70 86 105 81 193 -3 62 -7 75 -33 105 -42 46 -107 77 -204 95 -103 20 -149 19 -178 -1z m-14994 -779 c110 -28 233 -95 333 -181 177 -154 283 -262 482 -493 110 -128 101 -118 211 -255 43 -55 82 -102 85 -105 3 -3 19 -23 35 -45 17 -22 32 -42 36 -45 3 -3 25 -32 50 -65 24 -33 52 -69 63 -80 10 -11 28 -36 41 -55 12 -19 31 -45 41 -57 11 -12 28 -34 39 -49 26 -36 291 -386 303 -399 4 -6 35 -46 67 -90 33 -44 63 -84 67 -90 4 -5 18 -23 31 -40 87 -112 317 -416 351 -465 13 -19 32 -44 42 -55 11 -11 39 -47 63 -80 25 -33 48 -62 51 -65 4 -3 26 -32 50 -65 24 -33 46 -62 49 -65 3 -3 26 -32 51 -65 25 -32 52 -67 60 -76 8 -9 26 -32 40 -50 14 -18 32 -41 41 -50 9 -9 30 -36 47 -60 16 -24 39 -53 49 -64 29 -31 183 -225 183 -230 0 -3 -8 -1 -17 5 -10 5 -58 28 -108 51 -129 59 -497 242 -585 290 -41 23 -106 58 -145 79 -38 20 -135 76 -215 124 -79 47 -148 86 -152 86 -4 0 -8 3 -8 8 0 4 -26 22 -57 40 -70 40 -96 55 -103 62 -3 3 -59 41 -125 84 -66 44 -139 94 -161 110 -23 17 -55 40 -70 51 -53 37 -279 208 -310 234 -17 14 -52 44 -79 66 -240 197 -494 443 -664 645 -35 41 -73 86 -84 100 -124 147 -291 403 -364 560 -100 211 -138 361 -131 510 4 76 10 106 31 150 48 102 127 159 255 184 37 8 68 14 69 15 1 0 29 -6 62 -15z m13067 1 c-11 -8 -26 -15 -33 -15 -7 0 -13 -4 -13 -10 0 -5 -5 -10 -10 -10 -16 0 -120 -78 -162 -121 -110 -115 -194 -279 -243 -479 -8 -36 -22 -114 -30 -175 -15 -106 -22 -192 -45 -560 -6 -93 -15 -237 -20 -320 -21 -327 -58 -564 -121 -775 -36 -121 -81 -190 -146 -224 -45 -23 -57 -21 -141 21 -56 28 -96 58 -166 127 -50 50 -107 111 -126 135 -46 58 -215 301 -259 371 -86 138 -113 184 -140 233 -15 28 -38 70 -51 92 -81 143 -244 463 -304 598 -22 48 -43 87 -47 87 -7 0 -21 -40 -59 -170 -34 -120 -136 -407 -171 -487 -11 -23 -19 -45 -19 -48 0 -3 -9 -27 -21 -53 -11 -26 -24 -56 -29 -67 -16 -38 -171 -350 -183 -370 -7 -10 -18 -25 -24 -33 -7 -7 -13 -18 -13 -23 0 -19 -121 -177 -177 -230 -83 -80 -150 -113 -213 -106 -57 7 -91 26 -140 78 -69 73 -109 136 -154 239 -15 36 -32 74 -37 85 -27 59 -109 362 -124 460 -3 22 -10 58 -15 80 -9 39 -32 164 -65 355 -40 230 -56 318 -65 355 -5 22 -21 90 -35 150 -14 61 -30 119 -34 130 -5 11 -12 29 -15 40 -16 62 -99 251 -117 265 -3 3 -12 16 -19 29 -17 33 -26 44 -89 107 -30 30 -53 56 -50 58 2 2 45 13 94 25 50 12 104 26 120 31 63 18 271 56 415 74 63 9 147 20 185 26 39 5 162 15 275 20 113 6 214 12 225 14 11 2 607 4 1325 4 1149 1 1303 0 1286 -13z m-9551 -3815 c22 -9 87 -34 145 -55 58 -21 119 -43 135 -50 34 -15 289 -104 320 -112 11 -2 29 -8 40 -13 22 -9 188 -62 330 -105 50 -15 108 -33 130 -40 22 -7 67 -21 100 -30 33 -9 71 -20 85 -25 27 -10 170 -48 315 -85 50 -13 126 -33 170 -45 44 -11 98 -25 120 -30 22 -5 81 -19 130 -30 117 -28 206 -48 280 -64 33 -7 69 -16 80 -19 11 -4 58 -13 105 -22 47 -8 117 -22 155 -30 64 -14 163 -33 370 -71 44 -8 114 -19 155 -26 80 -12 100 -21 100 -47 0 -9 6 -27 13 -41 7 -14 19 -46 26 -73 8 -26 18 -50 22 -53 5 -3 9 -12 9 -20 0 -9 12 -41 26 -72 14 -31 35 -79 46 -107 24 -61 175 -367 222 -450 19 -33 47 -84 62 -112 15 -29 31 -53 36 -53 4 0 8 -6 8 -12 0 -7 18 -39 40 -71 22 -31 40 -62 40 -67 0 -6 4 -10 8 -10 5 0 14 -10 19 -23 23 -49 271 -384 370 -498 136 -158 209 -236 352 -379 166 -164 204 -200 315 -295 32 -27 75 -64 95 -81 226 -193 556 -420 916 -630 238 -138 792 -400 909 -430 14 -3 29 -10 32 -15 3 -5 13 -9 22 -9 9 0 28 -6 42 -13 31 -16 294 -106 415 -142 50 -15 101 -30 115 -35 47 -16 165 -49 200 -55 65 -13 69 -27 5 -20 -256 24 -733 103 -980 160 -38 9 -106 25 -150 35 -196 46 -344 86 -615 168 -222 67 -545 184 -785 283 -82 34 -170 70 -195 80 -25 10 -73 31 -108 48 -34 17 -64 31 -67 31 -2 0 -67 30 -142 66 -204 97 -228 108 -233 114 -3 3 -43 24 -90 48 -145 73 -333 174 -410 223 -8 5 -26 15 -40 21 -14 7 -27 15 -30 19 -3 3 -12 9 -20 13 -8 4 -31 17 -52 29 -20 12 -74 44 -120 72 -45 27 -84 53 -86 57 -2 4 -7 8 -12 8 -5 0 -36 18 -69 40 -33 22 -64 40 -70 40 -5 0 -11 3 -13 8 -1 4 -77 57 -168 117 -91 61 -171 116 -178 123 -7 6 -17 12 -21 12 -4 0 -17 8 -29 17 -11 10 -30 25 -42 33 -82 55 -560 418 -580 440 -3 4 -23 19 -45 35 -22 17 -42 32 -45 35 -3 3 -30 25 -60 50 -30 24 -73 60 -95 80 -23 19 -65 55 -94 80 -30 25 -59 50 -65 55 -6 6 -29 25 -51 44 -49 42 -182 159 -210 186 -12 11 -44 40 -71 64 -265 238 -729 701 -1044 1041 -134 146 -117 126 -205 225 -38 43 -81 91 -95 105 -14 15 -65 73 -115 131 -93 109 -114 132 -186 213 l-44 49 30 -7 c16 -4 47 -16 70 -26z"/>
 </g>

</svg>
